<?xml version="1.0" encoding="utf-8" standalone="no"?>
<!DOCTYPE svg PUBLIC "-//W3C//DTD SVG 1.1//EN"
  "http://www.w3.org/Graphics/SVG/1.1/DTD/svg11.dtd">
<svg height="167.423915pt" version="1.1" viewBox="0 0 224.563362 167.423915" width="224.563362pt" xmlns="http://www.w3.org/2000/svg" xmlns:xlink="http://www.w3.org/1999/xlink">
 <metadata>
  <rdf:RDF xmlns:cc="http://creativecommons.org/ns#" xmlns:dc="http://purl.org/dc/elements/1.1/" xmlns:rdf="http://www.w3.org/1999/02/22-rdf-syntax-ns#">
   <cc:Work>
    <dc:type rdf:resource="http://purl.org/dc/dcmitype/StillImage"/>
    <dc:date>2021-11-10T10:51:59.083024</dc:date>
    <dc:format>image/svg+xml</dc:format>
    <dc:creator>
     <cc:Agent>
      <dc:title>Matplotlib v3.4.2, https://matplotlib.org/</dc:title>
     </cc:Agent>
    </dc:creator>
   </cc:Work>
  </rdf:RDF>
 </metadata>
 <defs>
  <style type="text/css">*{stroke-linecap:butt;stroke-linejoin:round;}</style>
 </defs>
 <g id="figure_1">
  <g id="patch_1">
   <path d="M 0 167.423915 
L 224.563362 167.423915 
L 224.563362 0 
L 0 0 
z
" style="fill:#ffffff;"/>
  </g>
  <g id="axes_1">
   <g id="patch_2">
    <path d="M 36.823362 144.901828 
L 220.963362 144.901828 
L 220.963362 6.301828 
L 36.823362 6.301828 
z
" style="fill:#ffffff;"/>
   </g>
   <g id="matplotlib.axis_1">
    <g id="xtick_1">
     <g id="line2d_1">
      <path clip-path="url(#p37cbf5ead8)" d="M 67.513362 144.901828 
L 67.513362 6.301828 
" style="fill:none;stroke:#ffffff;stroke-dasharray:1.85,0.8;stroke-dashoffset:0;stroke-opacity:0.35;stroke-width:0.5;"/>
     </g>
     <g id="line2d_2"/>
     <g id="line2d_3"/>
     <g id="text_1">
      <!-- Racial Groups -->
      <g transform="translate(44.603515 153.805484)scale(0.08 -0.08)">
       <defs>
        <path d="M 4218 121 
C 3974 140 3846 204 3661 421 
L 2342 2035 
C 2771 2118 2963 2194 3174 2366 
C 3379 2532 3501 2800 3501 3100 
C 3501 3374 3418 3610 3251 3795 
C 3008 4057 2477 4224 1875 4224 
L 109 4224 
L 109 4102 
C 589 4051 653 3981 653 3528 
L 653 765 
C 653 236 589 159 109 121 
L 109 0 
L 1882 0 
L 1882 121 
C 1389 153 1306 236 1306 695 
L 1306 1952 
L 1664 1965 
L 3187 0 
L 4218 0 
L 4218 121 
z
M 1306 3756 
C 1306 3935 1376 3987 1632 3987 
C 2432 3987 2803 3711 2803 3110 
C 2803 2790 2669 2521 2438 2399 
C 2144 2233 1920 2195 1306 2182 
L 1306 3756 
z
" id="NimbusRomNo9L-Regu-52" transform="scale(0.015625)"/>
        <path d="M 2829 422 
C 2720 332 2643 300 2547 300 
C 2400 300 2355 390 2355 672 
L 2355 1920 
C 2355 2252 2323 2438 2227 2592 
C 2086 2822 1811 2944 1434 2944 
C 832 2944 358 2630 358 2227 
C 358 2080 486 1952 634 1952 
C 787 1952 922 2080 922 2220 
C 922 2246 915 2278 909 2323 
C 896 2380 890 2432 890 2476 
C 890 2649 1094 2790 1350 2790 
C 1664 2790 1837 2604 1837 2259 
L 1837 1868 
C 851 1472 742 1420 467 1177 
C 326 1049 237 832 237 620 
C 237 217 518 -64 909 -64 
C 1190 -64 1453 70 1843 403 
C 1875 70 1990 -64 2253 -64 
C 2470 -64 2605 12 2829 256 
L 2829 422 
z
M 1837 787 
C 1837 588 1805 531 1670 454 
C 1517 364 1338 307 1203 307 
C 979 307 800 524 800 800 
L 800 825 
C 800 1203 1062 1433 1837 1715 
L 1837 787 
z
" id="NimbusRomNo9L-Regu-61" transform="scale(0.015625)"/>
        <path d="M 2547 998 
C 2240 550 2010 396 1645 396 
C 1062 396 653 908 653 1644 
C 653 2303 1005 2758 1523 2758 
C 1754 2758 1837 2687 1901 2451 
L 1939 2310 
C 1990 2131 2106 2015 2240 2015 
C 2406 2015 2547 2137 2547 2284 
C 2547 2643 2099 2944 1562 2944 
C 1248 2944 922 2815 659 2585 
C 339 2303 160 1868 160 1363 
C 160 531 666 -64 1376 -64 
C 1664 -64 1920 38 2150 236 
C 2323 390 2445 563 2637 940 
L 2547 998 
z
" id="NimbusRomNo9L-Regu-63" transform="scale(0.015625)"/>
        <path d="M 1120 2944 
L 128 2592 
L 128 2496 
L 179 2502 
C 256 2515 339 2521 397 2521 
C 550 2521 608 2419 608 2137 
L 608 652 
C 608 192 544 121 102 96 
L 102 0 
L 1619 0 
L 1619 96 
C 1197 128 1146 192 1146 652 
L 1146 2924 
L 1120 2944 
z
M 819 4352 
C 646 4352 499 4204 499 4025 
C 499 3846 640 3699 819 3699 
C 1005 3699 1152 3839 1152 4025 
C 1152 4204 1005 4352 819 4352 
z
" id="NimbusRomNo9L-Regu-69" transform="scale(0.015625)"/>
        <path d="M 122 3987 
L 160 3987 
C 230 3993 307 4000 358 4000 
C 563 4000 627 3910 627 3609 
L 627 556 
C 627 211 538 128 134 96 
L 134 0 
L 1645 0 
L 1645 96 
C 1242 121 1165 185 1165 537 
L 1165 4358 
L 1139 4371 
C 806 4262 563 4198 122 4089 
L 122 3987 
z
" id="NimbusRomNo9L-Regu-6c" transform="scale(0.015625)"/>
        <path d="M 4538 2291 
L 2906 2291 
L 2906 2176 
C 3181 2156 3258 2137 3334 2086 
C 3430 2028 3469 1881 3469 1606 
L 3469 569 
C 3469 364 3078 192 2618 192 
C 1574 192 934 921 934 2112 
C 934 2713 1114 3296 1395 3609 
C 1677 3923 2074 4095 2509 4095 
C 2867 4095 3181 3974 3430 3744 
C 3622 3565 3725 3392 3885 3001 
L 4032 3001 
L 3981 4352 
L 3840 4352 
C 3802 4230 3686 4140 3552 4140 
C 3488 4140 3386 4159 3270 4204 
C 2982 4300 2688 4352 2400 4352 
C 1120 4352 205 3411 205 2105 
C 205 1478 378 998 736 620 
C 1165 179 1779 -64 2483 -64 
C 3034 -64 3834 160 4090 384 
L 4090 1683 
C 4090 2060 4166 2144 4538 2176 
L 4538 2291 
z
" id="NimbusRomNo9L-Regu-47" transform="scale(0.015625)"/>
        <path d="M 45 2496 
C 134 2515 192 2521 269 2521 
C 429 2521 486 2419 486 2137 
L 486 537 
C 486 217 442 172 32 96 
L 32 0 
L 1568 0 
L 1568 96 
C 1133 115 1024 211 1024 576 
L 1024 2016 
C 1024 2220 1299 2540 1472 2540 
C 1510 2540 1568 2508 1638 2444 
C 1741 2355 1811 2316 1894 2316 
C 2048 2316 2144 2425 2144 2604 
C 2144 2815 2010 2944 1792 2944 
C 1523 2944 1338 2796 1024 2342 
L 1024 2931 
L 992 2944 
C 653 2803 422 2720 45 2598 
L 45 2496 
z
" id="NimbusRomNo9L-Regu-72" transform="scale(0.015625)"/>
        <path d="M 1600 2944 
C 768 2944 186 2329 186 1446 
C 186 582 781 -64 1587 -64 
C 2394 -64 3008 614 3008 1497 
C 3008 2336 2419 2944 1600 2944 
z
M 1517 2764 
C 2054 2764 2432 2150 2432 1273 
C 2432 550 2144 115 1664 115 
C 1414 115 1178 268 1043 524 
C 864 857 762 1305 762 1760 
C 762 2368 1062 2764 1517 2764 
z
" id="NimbusRomNo9L-Regu-6f" transform="scale(0.015625)"/>
        <path d="M 3066 319 
L 3034 319 
C 2739 319 2669 390 2669 684 
L 2669 2880 
L 1658 2880 
L 1658 2771 
C 2054 2752 2131 2688 2131 2368 
L 2131 864 
C 2131 684 2099 595 2010 524 
C 1837 384 1638 307 1446 307 
C 1197 307 992 524 992 793 
L 992 2880 
L 58 2880 
L 58 2790 
C 365 2771 454 2675 454 2380 
L 454 768 
C 454 262 762 -64 1229 -64 
C 1466 -64 1715 38 1888 211 
L 2163 486 
L 2163 -45 
L 2189 -64 
C 2509 64 2739 134 3066 224 
L 3066 319 
z
" id="NimbusRomNo9L-Regu-75" transform="scale(0.015625)"/>
        <path d="M 58 2515 
C 115 2521 160 2521 218 2521 
C 435 2521 480 2457 480 2157 
L 480 -839 
C 480 -1172 410 -1242 32 -1280 
L 32 -1389 
L 1581 -1389 
L 1581 -1280 
C 1101 -1274 1018 -1203 1018 -798 
L 1018 211 
C 1242 0 1395 -64 1664 -64 
C 2419 -64 3008 652 3008 1580 
C 3008 2374 2560 2944 1939 2944 
C 1581 2944 1299 2783 1018 2438 
L 1018 2931 
L 979 2944 
C 634 2809 410 2726 58 2617 
L 58 2515 
z
M 1018 2137 
C 1018 2329 1376 2559 1670 2559 
C 2144 2559 2458 2073 2458 1331 
C 2458 620 2144 140 1683 140 
C 1382 140 1018 371 1018 563 
L 1018 2137 
z
" id="NimbusRomNo9L-Regu-70" transform="scale(0.015625)"/>
        <path d="M 2016 2009 
L 1990 2880 
L 1920 2880 
L 1907 2867 
C 1850 2822 1843 2815 1818 2815 
C 1779 2815 1715 2828 1645 2860 
C 1504 2918 1363 2944 1197 2944 
C 691 2944 326 2617 326 2155 
C 326 1796 531 1539 1075 1231 
L 1446 1019 
C 1670 891 1779 737 1779 538 
C 1779 256 1574 76 1248 76 
C 1030 76 832 160 710 301 
C 576 461 518 609 435 974 
L 333 974 
L 333 -26 
L 416 -26 
C 461 38 486 51 563 51 
C 621 51 710 38 858 0 
C 1037 -39 1210 -64 1325 -64 
C 1818 -64 2227 307 2227 756 
C 2227 1077 2074 1289 1690 1520 
L 998 1930 
C 819 2033 723 2193 723 2366 
C 723 2623 922 2803 1216 2803 
C 1581 2803 1773 2585 1920 2014 
L 2016 2009 
z
" id="NimbusRomNo9L-Regu-73" transform="scale(0.015625)"/>
       </defs>
       <use transform="scale(0.996264)" xlink:href="#NimbusRomNo9L-Regu-52"/>
       <use transform="translate(66.450031 0)scale(0.996264)" xlink:href="#NimbusRomNo9L-Regu-61"/>
       <use transform="translate(110.6836 0)scale(0.996264)" xlink:href="#NimbusRomNo9L-Regu-63"/>
       <use transform="translate(154.917169 0)scale(0.996264)" xlink:href="#NimbusRomNo9L-Regu-69"/>
       <use transform="translate(182.612338 0)scale(0.996264)" xlink:href="#NimbusRomNo9L-Regu-61"/>
       <use transform="translate(226.845907 0)scale(0.996264)" xlink:href="#NimbusRomNo9L-Regu-6c"/>
       <use transform="translate(279.447677 0)scale(0.996264)" xlink:href="#NimbusRomNo9L-Regu-47"/>
       <use transform="translate(351.377662 0)scale(0.996264)" xlink:href="#NimbusRomNo9L-Regu-72"/>
       <use transform="translate(384.552891 0)scale(0.996264)" xlink:href="#NimbusRomNo9L-Regu-6f"/>
       <use transform="translate(434.366092 0)scale(0.996264)" xlink:href="#NimbusRomNo9L-Regu-75"/>
       <use transform="translate(484.179292 0)scale(0.996264)" xlink:href="#NimbusRomNo9L-Regu-70"/>
       <use transform="translate(533.992493 0)scale(0.996264)" xlink:href="#NimbusRomNo9L-Regu-73"/>
      </g>
     </g>
    </g>
    <g id="xtick_2">
     <g id="line2d_4">
      <path clip-path="url(#p37cbf5ead8)" d="M 128.893362 144.901828 
L 128.893362 6.301828 
" style="fill:none;stroke:#ffffff;stroke-dasharray:1.85,0.8;stroke-dashoffset:0;stroke-opacity:0.35;stroke-width:0.5;"/>
     </g>
     <g id="line2d_5"/>
     <g id="line2d_6"/>
     <g id="text_2">
      <!-- \begin{center}Binary Skin\\Tones\end{center} -->
      <g transform="translate(109.74135 153.805484)scale(0.08 -0.08)">
       <defs>
        <path d="M 109 4224 
L 109 4102 
C 646 4070 723 4000 723 3528 
L 723 695 
C 723 223 640 140 109 121 
L 109 0 
L 2246 0 
C 2746 0 3200 134 3437 351 
C 3667 555 3795 842 3795 1148 
C 3795 1429 3680 1684 3482 1869 
C 3290 2041 3117 2118 2701 2220 
C 3034 2303 3168 2367 3322 2500 
C 3482 2641 3578 2877 3578 3138 
C 3578 3853 3008 4224 1901 4224 
L 109 4224 
z
M 1376 2080 
C 1997 2080 2291 2048 2522 1952 
C 2886 1799 3059 1544 3059 1142 
C 3059 798 2925 549 2669 402 
C 2464 287 2202 236 1779 236 
C 1466 236 1376 294 1376 498 
L 1376 2080 
z
M 1376 2335 
L 1376 3795 
C 1376 3929 1421 3987 1517 3987 
L 1798 3987 
C 2534 3987 2925 3680 2925 3113 
C 2925 2615 2586 2335 1984 2335 
L 1376 2335 
z
" id="NimbusRomNo9L-Regu-42" transform="scale(0.015625)"/>
        <path d="M 102 2547 
C 141 2566 205 2572 275 2572 
C 454 2572 512 2476 512 2163 
L 512 576 
C 512 211 442 121 115 96 
L 115 0 
L 1472 0 
L 1472 96 
C 1146 121 1050 198 1050 428 
L 1050 2227 
C 1357 2515 1498 2591 1709 2591 
C 2022 2591 2176 2393 2176 1971 
L 2176 633 
C 2176 230 2093 121 1773 96 
L 1773 0 
L 3104 0 
L 3104 96 
C 2790 128 2714 204 2714 518 
L 2714 1984 
C 2714 2585 2432 2944 1958 2944 
C 1664 2944 1466 2835 1030 2425 
L 1030 2931 
L 986 2944 
C 672 2828 454 2758 102 2655 
L 102 2547 
z
" id="NimbusRomNo9L-Regu-6e" transform="scale(0.015625)"/>
        <path d="M 3040 2880 
L 2176 2880 
L 2176 2783 
C 2381 2783 2483 2726 2483 2623 
C 2483 2597 2477 2559 2458 2514 
L 1837 741 
L 1101 2366 
C 1062 2456 1037 2540 1037 2610 
C 1037 2726 1133 2771 1408 2783 
L 1408 2880 
L 90 2880 
L 90 2790 
C 256 2764 365 2694 416 2585 
L 1146 1005 
L 1165 953 
L 1261 761 
C 1440 439 1542 208 1542 112 
C 1542 15 1395 -389 1286 -582 
C 1197 -749 1056 -871 966 -871 
C 928 -871 870 -858 806 -826 
C 685 -781 576 -755 467 -755 
C 320 -755 192 -884 192 -1037 
C 192 -1248 397 -1408 666 -1408 
C 1094 -1408 1402 -1050 1747 -126 
L 2733 2495 
C 2816 2700 2886 2764 3040 2783 
L 3040 2880 
z
" id="NimbusRomNo9L-Regu-79" transform="scale(0.015625)"/>
        <path d="M 2861 4313 
L 2726 4313 
C 2701 4166 2630 4095 2522 4095 
C 2458 4095 2349 4121 2240 4172 
C 2003 4300 1766 4352 1562 4352 
C 1286 4352 1005 4243 794 4057 
C 570 3859 454 3590 454 3257 
C 454 2745 736 2387 1453 2009 
C 1914 1766 2246 1504 2406 1260 
C 2464 1177 2496 1043 2496 889 
C 2496 460 2176 166 1709 166 
C 1139 166 736 518 416 1299 
L 269 1299 
L 461 -58 
L 602 -58 
C 608 38 685 128 781 128 
C 851 128 960 102 1082 57 
C 1325 -13 1581 -64 1837 -64 
C 2573 -64 3142 441 3142 1100 
C 3142 1625 2790 2041 1946 2496 
C 1274 2867 1005 3148 1005 3494 
C 1005 3846 1274 4089 1670 4089 
C 1958 4089 2227 3968 2451 3737 
C 2650 3533 2739 3366 2842 2988 
L 3002 2988 
L 2861 4313 
z
" id="NimbusRomNo9L-Regu-53" transform="scale(0.015625)"/>
        <path d="M 45 3987 
C 128 3993 186 4000 250 4000 
C 461 4000 525 3916 525 3609 
L 525 524 
C 525 192 506 172 45 96 
L 45 0 
L 1542 0 
L 1542 96 
L 1414 102 
C 1158 115 1062 204 1062 428 
L 1062 1606 
L 1958 409 
L 1978 384 
C 1990 364 2003 345 2022 326 
C 2074 262 2093 224 2093 192 
C 2093 134 2035 96 1958 96 
L 1837 96 
L 1837 0 
L 3232 0 
L 3232 96 
C 2950 115 2752 236 2483 563 
L 1504 1804 
L 1690 1977 
C 2144 2400 2541 2694 2726 2745 
C 2822 2771 2912 2783 3021 2783 
L 3072 2783 
L 3072 2880 
L 1766 2880 
L 1766 2790 
C 2016 2783 2086 2758 2086 2668 
C 2086 2617 2029 2528 1939 2451 
L 1062 1670 
L 1062 4358 
L 1037 4371 
C 794 4294 608 4243 237 4140 
L 45 4089 
L 45 3987 
z
" id="NimbusRomNo9L-Regu-6b" transform="scale(0.015625)"/>
        <path d="M 1626 3955 
L 1626 765 
C 1626 223 1555 153 1024 121 
L 1024 0 
L 2893 0 
L 2893 121 
C 2368 147 2278 230 2278 695 
L 2278 3955 
L 2624 3955 
C 3354 3955 3494 3840 3642 3138 
L 3795 3138 
L 3757 4224 
L 147 4224 
L 109 3138 
L 262 3138 
C 416 3834 563 3955 1280 3955 
L 1626 3955 
z
" id="NimbusRomNo9L-Regu-54" transform="scale(0.015625)"/>
        <path d="M 2611 1052 
C 2304 564 2029 377 1619 377 
C 1254 377 979 564 794 930 
C 678 1174 634 1386 621 1779 
L 2592 1779 
C 2541 2193 2477 2377 2317 2580 
C 2125 2809 1830 2944 1498 2944 
C 1178 2944 877 2828 634 2612 
C 333 2351 160 1900 160 1374 
C 160 486 621 -64 1357 -64 
C 1965 -64 2445 313 2714 1007 
L 2611 1052 
z
M 634 1984 
C 704 2478 922 2713 1312 2713 
C 1702 2713 1856 2535 1939 1984 
L 634 1984 
z
" id="NimbusRomNo9L-Regu-65" transform="scale(0.015625)"/>
       </defs>
       <use transform="scale(0.996264)" xlink:href="#NimbusRomNo9L-Regu-42"/>
       <use transform="translate(66.450031 0)scale(0.996264)" xlink:href="#NimbusRomNo9L-Regu-69"/>
       <use transform="translate(94.145201 0)scale(0.996264)" xlink:href="#NimbusRomNo9L-Regu-6e"/>
       <use transform="translate(143.958401 0)scale(0.996264)" xlink:href="#NimbusRomNo9L-Regu-61"/>
       <use transform="translate(188.19197 0)scale(0.996264)" xlink:href="#NimbusRomNo9L-Regu-72"/>
       <use transform="translate(221.3672 0)scale(0.996264)" xlink:href="#NimbusRomNo9L-Regu-79"/>
       <use transform="translate(296.087 0)scale(0.996264)" xlink:href="#NimbusRomNo9L-Regu-53"/>
       <use transform="translate(351.478677 0)scale(0.996264)" xlink:href="#NimbusRomNo9L-Regu-6b"/>
       <use transform="translate(401.291878 0)scale(0.996264)" xlink:href="#NimbusRomNo9L-Regu-69"/>
       <use transform="translate(428.987047 0)scale(0.996264)" xlink:href="#NimbusRomNo9L-Regu-6e"/>
       <use transform="translate(121.6422 -124.533001)scale(0.996264)" xlink:href="#NimbusRomNo9L-Regu-54"/>
       <use transform="translate(174.544387 -124.533001)scale(0.996264)" xlink:href="#NimbusRomNo9L-Regu-6f"/>
       <use transform="translate(224.357588 -124.533001)scale(0.996264)" xlink:href="#NimbusRomNo9L-Regu-6e"/>
       <use transform="translate(274.170788 -124.533001)scale(0.996264)" xlink:href="#NimbusRomNo9L-Regu-65"/>
       <use transform="translate(318.404357 -124.533001)scale(0.996264)" xlink:href="#NimbusRomNo9L-Regu-73"/>
      </g>
     </g>
    </g>
    <g id="xtick_3">
     <g id="line2d_7">
      <path clip-path="url(#p37cbf5ead8)" d="M 190.273362 144.901828 
L 190.273362 6.301828 
" style="fill:none;stroke:#ffffff;stroke-dasharray:1.85,0.8;stroke-dashoffset:0;stroke-opacity:0.35;stroke-width:0.5;"/>
     </g>
     <g id="line2d_8"/>
     <g id="line2d_9"/>
     <g id="text_3">
      <!-- \begin{center}Phenotype\\Attributes\end{center} -->
      <g transform="translate(173.448561 153.805484)scale(0.08 -0.08)">
       <defs>
        <path d="M 1293 1875 
C 1459 1862 1568 1855 1734 1855 
C 2234 1855 2579 1919 2854 2073 
C 3238 2276 3469 2661 3469 3077 
C 3469 3343 3379 3583 3206 3766 
C 2950 4044 2394 4224 1792 4224 
L 102 4224 
L 102 4102 
C 576 4051 640 3987 640 3528 
L 640 765 
C 640 230 589 166 102 121 
L 102 0 
L 1894 0 
L 1894 121 
C 1389 140 1293 230 1293 695 
L 1293 1875 
z
M 1293 3772 
C 1293 3942 1338 3987 1510 3987 
C 2374 3987 2771 3690 2771 3040 
C 2771 2427 2394 2112 1658 2112 
C 1530 2112 1440 2118 1293 2130 
L 1293 3772 
z
" id="NimbusRomNo9L-Regu-50" transform="scale(0.015625)"/>
        <path d="M 1005 2195 
C 1274 2489 1466 2598 1715 2598 
C 2035 2598 2195 2368 2195 1920 
L 2195 652 
C 2195 217 2131 134 1760 96 
L 1760 0 
L 3117 0 
L 3117 96 
C 2771 160 2733 211 2733 652 
L 2733 1926 
C 2733 2598 2464 2944 1946 2944 
C 1568 2944 1299 2790 1005 2406 
L 1005 4352 
L 973 4371 
C 755 4294 595 4243 237 4140 
L 64 4089 
L 64 3987 
C 90 3993 109 3993 141 3993 
C 416 3993 467 3942 467 3667 
L 467 652 
C 467 204 429 147 58 96 
L 58 0 
L 1440 0 
L 1440 96 
C 1069 134 1005 211 1005 652 
L 1005 2195 
z
" id="NimbusRomNo9L-Regu-68" transform="scale(0.015625)"/>
        <path d="M 1632 2880 
L 986 2880 
L 986 3622 
C 986 3686 979 3705 941 3705 
C 896 3648 858 3590 813 3526 
C 570 3174 294 2867 192 2841 
C 122 2796 83 2751 83 2719 
C 83 2700 90 2687 109 2675 
L 448 2675 
L 448 748 
C 448 211 640 -64 1018 -64 
C 1331 -64 1574 89 1786 422 
L 1702 492 
C 1568 332 1459 268 1318 268 
C 1082 268 986 441 986 844 
L 986 2675 
L 1632 2675 
L 1632 2880 
z
" id="NimbusRomNo9L-Regu-74" transform="scale(0.015625)"/>
        <path d="M 4518 121 
C 4230 141 4166 205 3942 686 
L 2349 4288 
L 2221 4288 
L 890 1187 
C 480 238 403 134 96 121 
L 96 0 
L 1363 0 
L 1363 121 
C 1056 121 928 205 928 387 
C 928 465 947 556 979 641 
L 1274 1401 
L 2950 1401 
L 3213 777 
C 3290 602 3334 433 3334 342 
C 3334 179 3226 128 2886 121 
L 2886 0 
L 4518 0 
L 4518 121 
z
M 1382 1664 
L 2118 3392 
L 2861 1664 
L 1382 1664 
z
" id="NimbusRomNo9L-Regu-41" transform="scale(0.015625)"/>
        <path d="M 979 4358 
L 947 4371 
C 678 4275 506 4224 205 4140 
L 19 4089 
L 19 3987 
C 58 3993 83 3993 128 3993 
C 384 3993 442 3936 442 3667 
L 442 345 
C 442 147 986 -64 1498 -64 
C 2342 -64 2995 639 2995 1555 
C 2995 2342 2509 2944 1869 2944 
C 1478 2944 1107 2713 979 2399 
L 979 4358 
z
M 979 2060 
C 979 2310 1280 2540 1613 2540 
C 2112 2540 2432 2041 2432 1260 
C 2432 550 2125 140 1600 140 
C 1267 140 979 287 979 447 
L 979 2060 
z
" id="NimbusRomNo9L-Regu-62" transform="scale(0.015625)"/>
       </defs>
       <use transform="scale(0.996264)" xlink:href="#NimbusRomNo9L-Regu-50"/>
       <use transform="translate(55.391677 0)scale(0.996264)" xlink:href="#NimbusRomNo9L-Regu-68"/>
       <use transform="translate(105.204877 0)scale(0.996264)" xlink:href="#NimbusRomNo9L-Regu-65"/>
       <use transform="translate(149.438446 0)scale(0.996264)" xlink:href="#NimbusRomNo9L-Regu-6e"/>
       <use transform="translate(199.251647 0)scale(0.996264)" xlink:href="#NimbusRomNo9L-Regu-6f"/>
       <use transform="translate(249.064847 0)scale(0.996264)" xlink:href="#NimbusRomNo9L-Regu-74"/>
       <use transform="translate(276.760017 0)scale(0.996264)" xlink:href="#NimbusRomNo9L-Regu-79"/>
       <use transform="translate(326.573217 0)scale(0.996264)" xlink:href="#NimbusRomNo9L-Regu-70"/>
       <use transform="translate(376.386418 0)scale(0.996264)" xlink:href="#NimbusRomNo9L-Regu-65"/>
       <use transform="translate(12.056214 -124.533001)scale(0.996264)" xlink:href="#NimbusRomNo9L-Regu-41"/>
       <use transform="translate(83.986199 -124.533001)scale(0.996264)" xlink:href="#NimbusRomNo9L-Regu-74"/>
       <use transform="translate(111.681369 -124.533001)scale(0.996264)" xlink:href="#NimbusRomNo9L-Regu-74"/>
       <use transform="translate(139.376538 -124.533001)scale(0.996264)" xlink:href="#NimbusRomNo9L-Regu-72"/>
       <use transform="translate(172.551768 -124.533001)scale(0.996264)" xlink:href="#NimbusRomNo9L-Regu-69"/>
       <use transform="translate(200.246938 -124.533001)scale(0.996264)" xlink:href="#NimbusRomNo9L-Regu-62"/>
       <use transform="translate(248.068127 -124.533001)scale(0.996264)" xlink:href="#NimbusRomNo9L-Regu-75"/>
       <use transform="translate(297.881328 -124.533001)scale(0.996264)" xlink:href="#NimbusRomNo9L-Regu-74"/>
       <use transform="translate(325.576497 -124.533001)scale(0.996264)" xlink:href="#NimbusRomNo9L-Regu-65"/>
       <use transform="translate(369.810066 -124.533001)scale(0.996264)" xlink:href="#NimbusRomNo9L-Regu-73"/>
      </g>
     </g>
    </g>
    <g id="xtick_4">
     <g id="line2d_10"/>
     <g id="line2d_11"/>
    </g>
    <g id="xtick_5">
     <g id="line2d_12"/>
     <g id="line2d_13"/>
    </g>
    <g id="xtick_6">
     <g id="line2d_14"/>
     <g id="line2d_15"/>
    </g>
    <g id="xtick_7">
     <g id="line2d_16"/>
     <g id="line2d_17"/>
    </g>
    <g id="xtick_8">
     <g id="line2d_18"/>
     <g id="line2d_19"/>
    </g>
    <g id="xtick_9">
     <g id="line2d_20"/>
     <g id="line2d_21"/>
    </g>
    <g id="xtick_10">
     <g id="line2d_22"/>
     <g id="line2d_23"/>
    </g>
    <g id="xtick_11">
     <g id="line2d_24"/>
     <g id="line2d_25"/>
    </g>
    <g id="xtick_12">
     <g id="line2d_26"/>
     <g id="line2d_27"/>
    </g>
    <g id="xtick_13">
     <g id="line2d_28"/>
     <g id="line2d_29"/>
    </g>
    <g id="xtick_14">
     <g id="line2d_30"/>
     <g id="line2d_31"/>
    </g>
    <g id="xtick_15">
     <g id="line2d_32"/>
     <g id="line2d_33"/>
    </g>
   </g>
   <g id="matplotlib.axis_2">
    <g id="ytick_1">
     <g id="line2d_34">
      <path clip-path="url(#p37cbf5ead8)" d="M 36.823362 144.901828 
L 220.963362 144.901828 
" style="fill:none;stroke:#000000;stroke-dasharray:1.85,0.8;stroke-dashoffset:0;stroke-opacity:0.35;stroke-width:0.5;"/>
     </g>
     <g id="line2d_35">
      <defs>
       <path d="M 0 0 
L 3 0 
" id="mddcc205ebd" style="stroke:#000000;stroke-width:0.5;"/>
      </defs>
      <g>
       <use style="stroke:#000000;stroke-width:0.5;" x="36.823362" xlink:href="#mddcc205ebd" y="144.901828"/>
      </g>
     </g>
     <g id="line2d_36">
      <defs>
       <path d="M 0 0 
L -3 0 
" id="m60b302b17a" style="stroke:#000000;stroke-width:0.5;"/>
      </defs>
      <g>
       <use style="stroke:#000000;stroke-width:0.5;" x="220.963362" xlink:href="#m60b302b17a" y="144.901828"/>
      </g>
     </g>
     <g id="text_4">
      <!-- $80\%$ -->
      <g transform="translate(18.714175 147.603656)scale(0.08 -0.08)">
       <defs>
        <path d="M 1856 2400 
C 2490 2739 2714 3008 2714 3443 
C 2714 3968 2253 4352 1613 4352 
C 915 4352 397 3923 397 3341 
C 397 2924 518 2739 1190 2150 
C 499 1625 358 1427 358 992 
C 358 371 864 -64 1587 -64 
C 2355 -64 2848 358 2848 1017 
C 2848 1510 2630 1824 1856 2400 
z
M 1741 1740 
C 2208 1408 2362 1177 2362 819 
C 2362 403 2074 115 1658 115 
C 1171 115 845 486 845 1043 
C 845 1452 986 1721 1357 2022 
L 1741 1740 
z
M 1670 2515 
C 1101 2886 870 3180 870 3539 
C 870 3910 1158 4172 1562 4172 
C 1997 4172 2272 3891 2272 3449 
C 2272 3084 2093 2796 1728 2553 
C 1696 2534 1696 2534 1670 2515 
z
" id="NimbusRomNo9L-Regu-38" transform="scale(0.015625)"/>
        <path d="M 1626 4352 
C 1274 4352 1005 4243 768 4019 
C 397 3661 154 2924 154 2176 
C 154 1478 365 729 666 371 
C 902 89 1229 -64 1600 -64 
C 1926 -64 2202 44 2432 268 
C 2803 620 3046 1363 3046 2137 
C 3046 3449 2464 4352 1626 4352 
z
M 1606 4185 
C 2144 4185 2432 3462 2432 2124 
C 2432 787 2150 102 1600 102 
C 1050 102 768 787 768 2118 
C 768 3475 1056 4185 1606 4185 
z
" id="NimbusRomNo9L-Regu-30" transform="scale(0.015625)"/>
        <path d="M 4282 2380 
C 3558 2380 2874 1630 2874 827 
C 2874 326 3181 0 3642 0 
C 3930 0 4166 102 4390 326 
C 4730 673 4941 1193 4941 1694 
C 4941 2131 4698 2380 4282 2380 
z
M 4326 2176 
C 4570 2176 4774 1944 4774 1662 
C 4774 1296 4614 859 4371 558 
C 4166 301 3981 192 3750 192 
C 3520 192 3360 358 3360 602 
C 3360 943 3539 1469 3776 1803 
C 3949 2060 4128 2176 4326 2176 
z
M 4058 4352 
L 3808 4352 
C 3462 4017 3206 3904 2810 3904 
C 2554 3904 2406 3950 2253 4084 
C 2086 4191 2003 4224 1805 4224 
C 1075 4224 390 3487 390 2671 
C 390 2221 730 1856 1146 1856 
C 1421 1856 1709 1984 1920 2208 
C 2253 2549 2458 3056 2458 3525 
C 2458 3615 2445 3692 2413 3807 
C 2528 3763 2643 3743 2829 3743 
C 3110 3743 3277 3788 3533 3930 
L 1286 -64 
L 1594 -64 
L 4058 4352 
z
M 2240 3862 
C 2278 3733 2298 3636 2298 3546 
C 2298 2816 1773 2073 1254 2073 
C 1030 2073 877 2235 877 2467 
C 877 2738 1005 3177 1178 3500 
C 1363 3814 1606 4031 1805 4031 
C 1837 4031 1850 4025 1888 3993 
C 1978 3910 2054 3878 2240 3827 
L 2240 3862 
z
" id="NimbusRomNo9L-Regu-25" transform="scale(0.015625)"/>
       </defs>
       <use transform="scale(0.996264)" xlink:href="#NimbusRomNo9L-Regu-38"/>
       <use transform="translate(49.8132 0)scale(0.996264)" xlink:href="#NimbusRomNo9L-Regu-30"/>
       <use transform="translate(99.626401 0)scale(0.996264)" xlink:href="#NimbusRomNo9L-Regu-25"/>
      </g>
     </g>
    </g>
    <g id="ytick_2">
     <g id="line2d_37">
      <path clip-path="url(#p37cbf5ead8)" d="M 36.823362 131.041828 
L 220.963362 131.041828 
" style="fill:none;stroke:#000000;stroke-dasharray:1.85,0.8;stroke-dashoffset:0;stroke-opacity:0.35;stroke-width:0.5;"/>
     </g>
     <g id="line2d_38">
      <g>
       <use style="stroke:#000000;stroke-width:0.5;" x="36.823362" xlink:href="#mddcc205ebd" y="131.041828"/>
      </g>
     </g>
     <g id="line2d_39">
      <g>
       <use style="stroke:#000000;stroke-width:0.5;" x="220.963362" xlink:href="#m60b302b17a" y="131.041828"/>
      </g>
     </g>
     <g id="text_5">
      <!-- $82\%$ -->
      <g transform="translate(18.714175 133.743656)scale(0.08 -0.08)">
       <defs>
        <path d="M 3040 879 
L 2957 912 
C 2720 544 2637 486 2349 486 
L 819 486 
L 1894 1621 
C 2464 2221 2714 2711 2714 3214 
C 2714 3858 2195 4352 1530 4352 
C 1178 4352 845 4211 608 3955 
C 403 3736 307 3530 198 3072 
L 333 3039 
C 589 3671 819 3878 1261 3878 
C 1798 3878 2163 3510 2163 2969 
C 2163 2466 1869 1866 1331 1292 
L 192 76 
L 192 0 
L 2688 0 
L 3040 879 
z
" id="NimbusRomNo9L-Regu-32" transform="scale(0.015625)"/>
       </defs>
       <use transform="scale(0.996264)" xlink:href="#NimbusRomNo9L-Regu-38"/>
       <use transform="translate(49.8132 0)scale(0.996264)" xlink:href="#NimbusRomNo9L-Regu-32"/>
       <use transform="translate(99.626401 0)scale(0.996264)" xlink:href="#NimbusRomNo9L-Regu-25"/>
      </g>
     </g>
    </g>
    <g id="ytick_3">
     <g id="line2d_40">
      <path clip-path="url(#p37cbf5ead8)" d="M 36.823362 117.181828 
L 220.963362 117.181828 
" style="fill:none;stroke:#000000;stroke-dasharray:1.85,0.8;stroke-dashoffset:0;stroke-opacity:0.35;stroke-width:0.5;"/>
     </g>
     <g id="line2d_41">
      <g>
       <use style="stroke:#000000;stroke-width:0.5;" x="36.823362" xlink:href="#mddcc205ebd" y="117.181828"/>
      </g>
     </g>
     <g id="line2d_42">
      <g>
       <use style="stroke:#000000;stroke-width:0.5;" x="220.963362" xlink:href="#m60b302b17a" y="117.181828"/>
      </g>
     </g>
     <g id="text_6">
      <!-- $84\%$ -->
      <g transform="translate(18.714175 119.883656)scale(0.08 -0.08)">
       <defs>
        <path d="M 3021 1497 
L 2368 1497 
L 2368 4352 
L 2086 4352 
L 77 1497 
L 77 1088 
L 1875 1088 
L 1875 0 
L 2368 0 
L 2368 1088 
L 3021 1088 
L 3021 1497 
z
M 1869 1497 
L 333 1497 
L 1869 3697 
L 1869 1497 
z
" id="NimbusRomNo9L-Regu-34" transform="scale(0.015625)"/>
       </defs>
       <use transform="scale(0.996264)" xlink:href="#NimbusRomNo9L-Regu-38"/>
       <use transform="translate(49.8132 0)scale(0.996264)" xlink:href="#NimbusRomNo9L-Regu-34"/>
       <use transform="translate(99.626401 0)scale(0.996264)" xlink:href="#NimbusRomNo9L-Regu-25"/>
      </g>
     </g>
    </g>
    <g id="ytick_4">
     <g id="line2d_43">
      <path clip-path="url(#p37cbf5ead8)" d="M 36.823362 103.321828 
L 220.963362 103.321828 
" style="fill:none;stroke:#000000;stroke-dasharray:1.85,0.8;stroke-dashoffset:0;stroke-opacity:0.35;stroke-width:0.5;"/>
     </g>
     <g id="line2d_44">
      <g>
       <use style="stroke:#000000;stroke-width:0.5;" x="36.823362" xlink:href="#mddcc205ebd" y="103.321828"/>
      </g>
     </g>
     <g id="line2d_45">
      <g>
       <use style="stroke:#000000;stroke-width:0.5;" x="220.963362" xlink:href="#m60b302b17a" y="103.321828"/>
      </g>
     </g>
     <g id="text_7">
      <!-- $86\%$ -->
      <g transform="translate(18.714175 106.023656)scale(0.08 -0.08)">
       <defs>
        <path d="M 2854 4390 
C 2125 4326 1754 4204 1286 3878 
C 595 3385 218 2655 218 1801 
C 218 1248 390 688 666 369 
C 909 89 1254 -64 1651 -64 
C 2445 -64 2995 541 2995 1420 
C 2995 2234 2528 2752 1792 2752 
C 1510 2752 1376 2707 973 2463 
C 1146 3430 1862 4121 2867 4288 
L 2854 4390 
z
M 1549 2457 
C 2099 2457 2419 1999 2419 1203 
C 2419 503 2170 115 1722 115 
C 1158 115 813 713 813 1700 
C 813 2024 864 2203 992 2298 
C 1126 2400 1325 2457 1549 2457 
z
" id="NimbusRomNo9L-Regu-36" transform="scale(0.015625)"/>
       </defs>
       <use transform="scale(0.996264)" xlink:href="#NimbusRomNo9L-Regu-38"/>
       <use transform="translate(49.8132 0)scale(0.996264)" xlink:href="#NimbusRomNo9L-Regu-36"/>
       <use transform="translate(99.626401 0)scale(0.996264)" xlink:href="#NimbusRomNo9L-Regu-25"/>
      </g>
     </g>
    </g>
    <g id="ytick_5">
     <g id="line2d_46">
      <path clip-path="url(#p37cbf5ead8)" d="M 36.823362 89.461828 
L 220.963362 89.461828 
" style="fill:none;stroke:#000000;stroke-dasharray:1.85,0.8;stroke-dashoffset:0;stroke-opacity:0.35;stroke-width:0.5;"/>
     </g>
     <g id="line2d_47">
      <g>
       <use style="stroke:#000000;stroke-width:0.5;" x="36.823362" xlink:href="#mddcc205ebd" y="89.461828"/>
      </g>
     </g>
     <g id="line2d_48">
      <g>
       <use style="stroke:#000000;stroke-width:0.5;" x="220.963362" xlink:href="#m60b302b17a" y="89.461828"/>
      </g>
     </g>
     <g id="text_8">
      <!-- $88\%$ -->
      <g transform="translate(18.714175 92.163656)scale(0.08 -0.08)">
       <use transform="scale(0.996264)" xlink:href="#NimbusRomNo9L-Regu-38"/>
       <use transform="translate(49.8132 0)scale(0.996264)" xlink:href="#NimbusRomNo9L-Regu-38"/>
       <use transform="translate(99.626401 0)scale(0.996264)" xlink:href="#NimbusRomNo9L-Regu-25"/>
      </g>
     </g>
    </g>
    <g id="ytick_6">
     <g id="line2d_49">
      <path clip-path="url(#p37cbf5ead8)" d="M 36.823362 75.601828 
L 220.963362 75.601828 
" style="fill:none;stroke:#000000;stroke-dasharray:1.85,0.8;stroke-dashoffset:0;stroke-opacity:0.35;stroke-width:0.5;"/>
     </g>
     <g id="line2d_50">
      <g>
       <use style="stroke:#000000;stroke-width:0.5;" x="36.823362" xlink:href="#mddcc205ebd" y="75.601828"/>
      </g>
     </g>
     <g id="line2d_51">
      <g>
       <use style="stroke:#000000;stroke-width:0.5;" x="220.963362" xlink:href="#m60b302b17a" y="75.601828"/>
      </g>
     </g>
     <g id="text_9">
      <!-- $90\%$ -->
      <g transform="translate(18.714175 78.303656)scale(0.08 -0.08)">
       <defs>
        <path d="M 378 -122 
C 1094 -39 1446 83 1882 396 
C 2547 883 2938 1676 2938 2542 
C 2938 3601 2349 4352 1523 4352 
C 762 4352 192 3704 192 2837 
C 192 2055 653 1536 1344 1536 
C 1696 1536 1965 1638 2304 1901 
C 2042 857 1331 172 358 6 
L 378 -122 
z
M 2317 2292 
C 2317 2164 2291 2106 2221 2048 
C 2042 1894 1805 1811 1574 1811 
C 1088 1811 781 2292 781 3056 
C 781 3421 883 3806 1018 3973 
C 1126 4102 1286 4172 1472 4172 
C 2029 4172 2317 3620 2317 2542 
L 2317 2292 
z
" id="NimbusRomNo9L-Regu-39" transform="scale(0.015625)"/>
       </defs>
       <use transform="scale(0.996264)" xlink:href="#NimbusRomNo9L-Regu-39"/>
       <use transform="translate(49.8132 0)scale(0.996264)" xlink:href="#NimbusRomNo9L-Regu-30"/>
       <use transform="translate(99.626401 0)scale(0.996264)" xlink:href="#NimbusRomNo9L-Regu-25"/>
      </g>
     </g>
    </g>
    <g id="ytick_7">
     <g id="line2d_52">
      <path clip-path="url(#p37cbf5ead8)" d="M 36.823362 61.741828 
L 220.963362 61.741828 
" style="fill:none;stroke:#000000;stroke-dasharray:1.85,0.8;stroke-dashoffset:0;stroke-opacity:0.35;stroke-width:0.5;"/>
     </g>
     <g id="line2d_53">
      <g>
       <use style="stroke:#000000;stroke-width:0.5;" x="36.823362" xlink:href="#mddcc205ebd" y="61.741828"/>
      </g>
     </g>
     <g id="line2d_54">
      <g>
       <use style="stroke:#000000;stroke-width:0.5;" x="220.963362" xlink:href="#m60b302b17a" y="61.741828"/>
      </g>
     </g>
     <g id="text_10">
      <!-- $92\%$ -->
      <g transform="translate(18.714175 64.443656)scale(0.08 -0.08)">
       <use transform="scale(0.996264)" xlink:href="#NimbusRomNo9L-Regu-39"/>
       <use transform="translate(49.8132 0)scale(0.996264)" xlink:href="#NimbusRomNo9L-Regu-32"/>
       <use transform="translate(99.626401 0)scale(0.996264)" xlink:href="#NimbusRomNo9L-Regu-25"/>
      </g>
     </g>
    </g>
    <g id="ytick_8">
     <g id="line2d_55">
      <path clip-path="url(#p37cbf5ead8)" d="M 36.823362 47.881828 
L 220.963362 47.881828 
" style="fill:none;stroke:#000000;stroke-dasharray:1.85,0.8;stroke-dashoffset:0;stroke-opacity:0.35;stroke-width:0.5;"/>
     </g>
     <g id="line2d_56">
      <g>
       <use style="stroke:#000000;stroke-width:0.5;" x="36.823362" xlink:href="#mddcc205ebd" y="47.881828"/>
      </g>
     </g>
     <g id="line2d_57">
      <g>
       <use style="stroke:#000000;stroke-width:0.5;" x="220.963362" xlink:href="#m60b302b17a" y="47.881828"/>
      </g>
     </g>
     <g id="text_11">
      <!-- $94\%$ -->
      <g transform="translate(18.714175 50.583656)scale(0.08 -0.08)">
       <use transform="scale(0.996264)" xlink:href="#NimbusRomNo9L-Regu-39"/>
       <use transform="translate(49.8132 0)scale(0.996264)" xlink:href="#NimbusRomNo9L-Regu-34"/>
       <use transform="translate(99.626401 0)scale(0.996264)" xlink:href="#NimbusRomNo9L-Regu-25"/>
      </g>
     </g>
    </g>
    <g id="ytick_9">
     <g id="line2d_58">
      <path clip-path="url(#p37cbf5ead8)" d="M 36.823362 34.021828 
L 220.963362 34.021828 
" style="fill:none;stroke:#000000;stroke-dasharray:1.85,0.8;stroke-dashoffset:0;stroke-opacity:0.35;stroke-width:0.5;"/>
     </g>
     <g id="line2d_59">
      <g>
       <use style="stroke:#000000;stroke-width:0.5;" x="36.823362" xlink:href="#mddcc205ebd" y="34.021828"/>
      </g>
     </g>
     <g id="line2d_60">
      <g>
       <use style="stroke:#000000;stroke-width:0.5;" x="220.963362" xlink:href="#m60b302b17a" y="34.021828"/>
      </g>
     </g>
     <g id="text_12">
      <!-- $96\%$ -->
      <g transform="translate(18.714175 36.723656)scale(0.08 -0.08)">
       <use transform="scale(0.996264)" xlink:href="#NimbusRomNo9L-Regu-39"/>
       <use transform="translate(49.8132 0)scale(0.996264)" xlink:href="#NimbusRomNo9L-Regu-36"/>
       <use transform="translate(99.626401 0)scale(0.996264)" xlink:href="#NimbusRomNo9L-Regu-25"/>
      </g>
     </g>
    </g>
    <g id="ytick_10">
     <g id="line2d_61">
      <path clip-path="url(#p37cbf5ead8)" d="M 36.823362 20.161828 
L 220.963362 20.161828 
" style="fill:none;stroke:#000000;stroke-dasharray:1.85,0.8;stroke-dashoffset:0;stroke-opacity:0.35;stroke-width:0.5;"/>
     </g>
     <g id="line2d_62">
      <g>
       <use style="stroke:#000000;stroke-width:0.5;" x="36.823362" xlink:href="#mddcc205ebd" y="20.161828"/>
      </g>
     </g>
     <g id="line2d_63">
      <g>
       <use style="stroke:#000000;stroke-width:0.5;" x="220.963362" xlink:href="#m60b302b17a" y="20.161828"/>
      </g>
     </g>
     <g id="text_13">
      <!-- $98\%$ -->
      <g transform="translate(18.714175 22.863656)scale(0.08 -0.08)">
       <use transform="scale(0.996264)" xlink:href="#NimbusRomNo9L-Regu-39"/>
       <use transform="translate(49.8132 0)scale(0.996264)" xlink:href="#NimbusRomNo9L-Regu-38"/>
       <use transform="translate(99.626401 0)scale(0.996264)" xlink:href="#NimbusRomNo9L-Regu-25"/>
      </g>
     </g>
    </g>
    <g id="ytick_11">
     <g id="line2d_64">
      <path clip-path="url(#p37cbf5ead8)" d="M 36.823362 6.301828 
L 220.963362 6.301828 
" style="fill:none;stroke:#000000;stroke-dasharray:1.85,0.8;stroke-dashoffset:0;stroke-opacity:0.35;stroke-width:0.5;"/>
     </g>
     <g id="line2d_65">
      <g>
       <use style="stroke:#000000;stroke-width:0.5;" x="36.823362" xlink:href="#mddcc205ebd" y="6.301828"/>
      </g>
     </g>
     <g id="line2d_66">
      <g>
       <use style="stroke:#000000;stroke-width:0.5;" x="220.963362" xlink:href="#m60b302b17a" y="6.301828"/>
      </g>
     </g>
     <g id="text_14">
      <!-- $100\%$ -->
      <g transform="translate(14.729119 9.003656)scale(0.08 -0.08)">
       <defs>
        <path d="M 1862 4352 
L 710 3776 
L 710 3686 
C 787 3718 858 3743 883 3756 
C 998 3801 1107 3826 1171 3826 
C 1306 3826 1363 3731 1363 3525 
L 1363 599 
C 1363 386 1312 238 1210 179 
C 1114 121 1024 102 755 96 
L 755 0 
L 2522 0 
L 2522 96 
C 2016 102 1914 167 1914 477 
L 1914 4339 
L 1862 4352 
z
" id="NimbusRomNo9L-Regu-31" transform="scale(0.015625)"/>
       </defs>
       <use transform="scale(0.996264)" xlink:href="#NimbusRomNo9L-Regu-31"/>
       <use transform="translate(49.8132 0)scale(0.996264)" xlink:href="#NimbusRomNo9L-Regu-30"/>
       <use transform="translate(99.626401 0)scale(0.996264)" xlink:href="#NimbusRomNo9L-Regu-30"/>
       <use transform="translate(149.439601 0)scale(0.996264)" xlink:href="#NimbusRomNo9L-Regu-25"/>
      </g>
     </g>
    </g>
    <g id="ytick_12">
     <g id="line2d_67">
      <defs>
       <path d="M 0 0 
L 1.5 0 
" id="m70728d876c" style="stroke:#000000;stroke-width:0.5;"/>
      </defs>
      <g>
       <use style="stroke:#000000;stroke-width:0.5;" x="36.823362" xlink:href="#m70728d876c" y="141.436828"/>
      </g>
     </g>
     <g id="line2d_68">
      <defs>
       <path d="M 0 0 
L -1.5 0 
" id="m564b4df948" style="stroke:#000000;stroke-width:0.5;"/>
      </defs>
      <g>
       <use style="stroke:#000000;stroke-width:0.5;" x="220.963362" xlink:href="#m564b4df948" y="141.436828"/>
      </g>
     </g>
    </g>
    <g id="ytick_13">
     <g id="line2d_69">
      <g>
       <use style="stroke:#000000;stroke-width:0.5;" x="36.823362" xlink:href="#m70728d876c" y="137.971828"/>
      </g>
     </g>
     <g id="line2d_70">
      <g>
       <use style="stroke:#000000;stroke-width:0.5;" x="220.963362" xlink:href="#m564b4df948" y="137.971828"/>
      </g>
     </g>
    </g>
    <g id="ytick_14">
     <g id="line2d_71">
      <g>
       <use style="stroke:#000000;stroke-width:0.5;" x="36.823362" xlink:href="#m70728d876c" y="134.506828"/>
      </g>
     </g>
     <g id="line2d_72">
      <g>
       <use style="stroke:#000000;stroke-width:0.5;" x="220.963362" xlink:href="#m564b4df948" y="134.506828"/>
      </g>
     </g>
    </g>
    <g id="ytick_15">
     <g id="line2d_73">
      <g>
       <use style="stroke:#000000;stroke-width:0.5;" x="36.823362" xlink:href="#m70728d876c" y="127.576828"/>
      </g>
     </g>
     <g id="line2d_74">
      <g>
       <use style="stroke:#000000;stroke-width:0.5;" x="220.963362" xlink:href="#m564b4df948" y="127.576828"/>
      </g>
     </g>
    </g>
    <g id="ytick_16">
     <g id="line2d_75">
      <g>
       <use style="stroke:#000000;stroke-width:0.5;" x="36.823362" xlink:href="#m70728d876c" y="124.111828"/>
      </g>
     </g>
     <g id="line2d_76">
      <g>
       <use style="stroke:#000000;stroke-width:0.5;" x="220.963362" xlink:href="#m564b4df948" y="124.111828"/>
      </g>
     </g>
    </g>
    <g id="ytick_17">
     <g id="line2d_77">
      <g>
       <use style="stroke:#000000;stroke-width:0.5;" x="36.823362" xlink:href="#m70728d876c" y="120.646828"/>
      </g>
     </g>
     <g id="line2d_78">
      <g>
       <use style="stroke:#000000;stroke-width:0.5;" x="220.963362" xlink:href="#m564b4df948" y="120.646828"/>
      </g>
     </g>
    </g>
    <g id="ytick_18">
     <g id="line2d_79">
      <g>
       <use style="stroke:#000000;stroke-width:0.5;" x="36.823362" xlink:href="#m70728d876c" y="113.716828"/>
      </g>
     </g>
     <g id="line2d_80">
      <g>
       <use style="stroke:#000000;stroke-width:0.5;" x="220.963362" xlink:href="#m564b4df948" y="113.716828"/>
      </g>
     </g>
    </g>
    <g id="ytick_19">
     <g id="line2d_81">
      <g>
       <use style="stroke:#000000;stroke-width:0.5;" x="36.823362" xlink:href="#m70728d876c" y="110.251828"/>
      </g>
     </g>
     <g id="line2d_82">
      <g>
       <use style="stroke:#000000;stroke-width:0.5;" x="220.963362" xlink:href="#m564b4df948" y="110.251828"/>
      </g>
     </g>
    </g>
    <g id="ytick_20">
     <g id="line2d_83">
      <g>
       <use style="stroke:#000000;stroke-width:0.5;" x="36.823362" xlink:href="#m70728d876c" y="106.786828"/>
      </g>
     </g>
     <g id="line2d_84">
      <g>
       <use style="stroke:#000000;stroke-width:0.5;" x="220.963362" xlink:href="#m564b4df948" y="106.786828"/>
      </g>
     </g>
    </g>
    <g id="ytick_21">
     <g id="line2d_85">
      <g>
       <use style="stroke:#000000;stroke-width:0.5;" x="36.823362" xlink:href="#m70728d876c" y="99.856828"/>
      </g>
     </g>
     <g id="line2d_86">
      <g>
       <use style="stroke:#000000;stroke-width:0.5;" x="220.963362" xlink:href="#m564b4df948" y="99.856828"/>
      </g>
     </g>
    </g>
    <g id="ytick_22">
     <g id="line2d_87">
      <g>
       <use style="stroke:#000000;stroke-width:0.5;" x="36.823362" xlink:href="#m70728d876c" y="96.391828"/>
      </g>
     </g>
     <g id="line2d_88">
      <g>
       <use style="stroke:#000000;stroke-width:0.5;" x="220.963362" xlink:href="#m564b4df948" y="96.391828"/>
      </g>
     </g>
    </g>
    <g id="ytick_23">
     <g id="line2d_89">
      <g>
       <use style="stroke:#000000;stroke-width:0.5;" x="36.823362" xlink:href="#m70728d876c" y="92.926828"/>
      </g>
     </g>
     <g id="line2d_90">
      <g>
       <use style="stroke:#000000;stroke-width:0.5;" x="220.963362" xlink:href="#m564b4df948" y="92.926828"/>
      </g>
     </g>
    </g>
    <g id="ytick_24">
     <g id="line2d_91">
      <g>
       <use style="stroke:#000000;stroke-width:0.5;" x="36.823362" xlink:href="#m70728d876c" y="85.996828"/>
      </g>
     </g>
     <g id="line2d_92">
      <g>
       <use style="stroke:#000000;stroke-width:0.5;" x="220.963362" xlink:href="#m564b4df948" y="85.996828"/>
      </g>
     </g>
    </g>
    <g id="ytick_25">
     <g id="line2d_93">
      <g>
       <use style="stroke:#000000;stroke-width:0.5;" x="36.823362" xlink:href="#m70728d876c" y="82.531828"/>
      </g>
     </g>
     <g id="line2d_94">
      <g>
       <use style="stroke:#000000;stroke-width:0.5;" x="220.963362" xlink:href="#m564b4df948" y="82.531828"/>
      </g>
     </g>
    </g>
    <g id="ytick_26">
     <g id="line2d_95">
      <g>
       <use style="stroke:#000000;stroke-width:0.5;" x="36.823362" xlink:href="#m70728d876c" y="79.066828"/>
      </g>
     </g>
     <g id="line2d_96">
      <g>
       <use style="stroke:#000000;stroke-width:0.5;" x="220.963362" xlink:href="#m564b4df948" y="79.066828"/>
      </g>
     </g>
    </g>
    <g id="ytick_27">
     <g id="line2d_97">
      <g>
       <use style="stroke:#000000;stroke-width:0.5;" x="36.823362" xlink:href="#m70728d876c" y="72.136828"/>
      </g>
     </g>
     <g id="line2d_98">
      <g>
       <use style="stroke:#000000;stroke-width:0.5;" x="220.963362" xlink:href="#m564b4df948" y="72.136828"/>
      </g>
     </g>
    </g>
    <g id="ytick_28">
     <g id="line2d_99">
      <g>
       <use style="stroke:#000000;stroke-width:0.5;" x="36.823362" xlink:href="#m70728d876c" y="68.671828"/>
      </g>
     </g>
     <g id="line2d_100">
      <g>
       <use style="stroke:#000000;stroke-width:0.5;" x="220.963362" xlink:href="#m564b4df948" y="68.671828"/>
      </g>
     </g>
    </g>
    <g id="ytick_29">
     <g id="line2d_101">
      <g>
       <use style="stroke:#000000;stroke-width:0.5;" x="36.823362" xlink:href="#m70728d876c" y="65.206828"/>
      </g>
     </g>
     <g id="line2d_102">
      <g>
       <use style="stroke:#000000;stroke-width:0.5;" x="220.963362" xlink:href="#m564b4df948" y="65.206828"/>
      </g>
     </g>
    </g>
    <g id="ytick_30">
     <g id="line2d_103">
      <g>
       <use style="stroke:#000000;stroke-width:0.5;" x="36.823362" xlink:href="#m70728d876c" y="58.276828"/>
      </g>
     </g>
     <g id="line2d_104">
      <g>
       <use style="stroke:#000000;stroke-width:0.5;" x="220.963362" xlink:href="#m564b4df948" y="58.276828"/>
      </g>
     </g>
    </g>
    <g id="ytick_31">
     <g id="line2d_105">
      <g>
       <use style="stroke:#000000;stroke-width:0.5;" x="36.823362" xlink:href="#m70728d876c" y="54.811828"/>
      </g>
     </g>
     <g id="line2d_106">
      <g>
       <use style="stroke:#000000;stroke-width:0.5;" x="220.963362" xlink:href="#m564b4df948" y="54.811828"/>
      </g>
     </g>
    </g>
    <g id="ytick_32">
     <g id="line2d_107">
      <g>
       <use style="stroke:#000000;stroke-width:0.5;" x="36.823362" xlink:href="#m70728d876c" y="51.346828"/>
      </g>
     </g>
     <g id="line2d_108">
      <g>
       <use style="stroke:#000000;stroke-width:0.5;" x="220.963362" xlink:href="#m564b4df948" y="51.346828"/>
      </g>
     </g>
    </g>
    <g id="ytick_33">
     <g id="line2d_109">
      <g>
       <use style="stroke:#000000;stroke-width:0.5;" x="36.823362" xlink:href="#m70728d876c" y="44.416828"/>
      </g>
     </g>
     <g id="line2d_110">
      <g>
       <use style="stroke:#000000;stroke-width:0.5;" x="220.963362" xlink:href="#m564b4df948" y="44.416828"/>
      </g>
     </g>
    </g>
    <g id="ytick_34">
     <g id="line2d_111">
      <g>
       <use style="stroke:#000000;stroke-width:0.5;" x="36.823362" xlink:href="#m70728d876c" y="40.951828"/>
      </g>
     </g>
     <g id="line2d_112">
      <g>
       <use style="stroke:#000000;stroke-width:0.5;" x="220.963362" xlink:href="#m564b4df948" y="40.951828"/>
      </g>
     </g>
    </g>
    <g id="ytick_35">
     <g id="line2d_113">
      <g>
       <use style="stroke:#000000;stroke-width:0.5;" x="36.823362" xlink:href="#m70728d876c" y="37.486828"/>
      </g>
     </g>
     <g id="line2d_114">
      <g>
       <use style="stroke:#000000;stroke-width:0.5;" x="220.963362" xlink:href="#m564b4df948" y="37.486828"/>
      </g>
     </g>
    </g>
    <g id="ytick_36">
     <g id="line2d_115">
      <g>
       <use style="stroke:#000000;stroke-width:0.5;" x="36.823362" xlink:href="#m70728d876c" y="30.556828"/>
      </g>
     </g>
     <g id="line2d_116">
      <g>
       <use style="stroke:#000000;stroke-width:0.5;" x="220.963362" xlink:href="#m564b4df948" y="30.556828"/>
      </g>
     </g>
    </g>
    <g id="ytick_37">
     <g id="line2d_117">
      <g>
       <use style="stroke:#000000;stroke-width:0.5;" x="36.823362" xlink:href="#m70728d876c" y="27.091828"/>
      </g>
     </g>
     <g id="line2d_118">
      <g>
       <use style="stroke:#000000;stroke-width:0.5;" x="220.963362" xlink:href="#m564b4df948" y="27.091828"/>
      </g>
     </g>
    </g>
    <g id="ytick_38">
     <g id="line2d_119">
      <g>
       <use style="stroke:#000000;stroke-width:0.5;" x="36.823362" xlink:href="#m70728d876c" y="23.626828"/>
      </g>
     </g>
     <g id="line2d_120">
      <g>
       <use style="stroke:#000000;stroke-width:0.5;" x="220.963362" xlink:href="#m564b4df948" y="23.626828"/>
      </g>
     </g>
    </g>
    <g id="ytick_39">
     <g id="line2d_121">
      <g>
       <use style="stroke:#000000;stroke-width:0.5;" x="36.823362" xlink:href="#m70728d876c" y="16.696828"/>
      </g>
     </g>
     <g id="line2d_122">
      <g>
       <use style="stroke:#000000;stroke-width:0.5;" x="220.963362" xlink:href="#m564b4df948" y="16.696828"/>
      </g>
     </g>
    </g>
    <g id="ytick_40">
     <g id="line2d_123">
      <g>
       <use style="stroke:#000000;stroke-width:0.5;" x="36.823362" xlink:href="#m70728d876c" y="13.231828"/>
      </g>
     </g>
     <g id="line2d_124">
      <g>
       <use style="stroke:#000000;stroke-width:0.5;" x="220.963362" xlink:href="#m564b4df948" y="13.231828"/>
      </g>
     </g>
    </g>
    <g id="ytick_41">
     <g id="line2d_125">
      <g>
       <use style="stroke:#000000;stroke-width:0.5;" x="36.823362" xlink:href="#m70728d876c" y="9.766828"/>
      </g>
     </g>
     <g id="line2d_126">
      <g>
       <use style="stroke:#000000;stroke-width:0.5;" x="220.963362" xlink:href="#m564b4df948" y="9.766828"/>
      </g>
     </g>
    </g>
    <g id="text_15">
     <!-- Accuracy -->
     <g transform="translate(9.003656 90.808726)rotate(-90)scale(0.08 -0.08)">
      <use transform="scale(0.996264)" xlink:href="#NimbusRomNo9L-Regu-41"/>
      <use transform="translate(71.929985 0)scale(0.996264)" xlink:href="#NimbusRomNo9L-Regu-63"/>
      <use transform="translate(116.163554 0)scale(0.996264)" xlink:href="#NimbusRomNo9L-Regu-63"/>
      <use transform="translate(160.397122 0)scale(0.996264)" xlink:href="#NimbusRomNo9L-Regu-75"/>
      <use transform="translate(210.210323 0)scale(0.996264)" xlink:href="#NimbusRomNo9L-Regu-72"/>
      <use transform="translate(243.385552 0)scale(0.996264)" xlink:href="#NimbusRomNo9L-Regu-61"/>
      <use transform="translate(287.619121 0)scale(0.996264)" xlink:href="#NimbusRomNo9L-Regu-63"/>
      <use transform="translate(330.359297 0)scale(0.996264)" xlink:href="#NimbusRomNo9L-Regu-79"/>
     </g>
    </g>
   </g>
   <g id="patch_3">
    <path clip-path="url(#p37cbf5ead8)" d="M 58.306362 699.301828 
L 76.720362 699.301828 
L 76.720362 58.867437 
L 58.306362 58.867437 
z
" style="fill:#4c78a8;"/>
   </g>
   <g id="patch_4">
    <path clip-path="url(#p37cbf5ead8)" d="M 119.686362 699.301828 
L 138.100362 699.301828 
L 138.100362 50.411278 
L 119.686362 50.411278 
z
" style="fill:#f58518;"/>
   </g>
   <g id="patch_5">
    <path clip-path="url(#p37cbf5ead8)" d="M 181.066362 699.301828 
L 199.480362 699.301828 
L 199.480362 47.888428 
L 181.066362 47.888428 
z
" style="fill:#e45756;"/>
   </g>
   <g id="LineCollection_1">
    <path clip-path="url(#p37cbf5ead8)" d="M 67.513362 67.105117 
L 67.513362 50.629757 
" style="fill:none;stroke:#000000;"/>
    <path clip-path="url(#p37cbf5ead8)" d="M 128.893362 54.557728 
L 128.893362 46.264828 
" style="fill:none;stroke:#000000;"/>
    <path clip-path="url(#p37cbf5ead8)" d="M 190.273362 62.160105 
L 190.273362 33.616751 
" style="fill:none;stroke:#000000;"/>
   </g>
   <g id="patch_6">
    <path d="M 36.823362 144.901828 
L 36.823362 6.301828 
" style="fill:none;stroke:#000000;stroke-linecap:square;stroke-linejoin:miter;stroke-width:0.5;"/>
   </g>
   <g id="patch_7">
    <path d="M 220.963362 144.901828 
L 220.963362 6.301828 
" style="fill:none;stroke:#000000;stroke-linecap:square;stroke-linejoin:miter;stroke-width:0.5;"/>
   </g>
   <g id="patch_8">
    <path d="M 36.823362 144.901828 
L 220.963362 144.901828 
" style="fill:none;stroke:#000000;stroke-linecap:square;stroke-linejoin:miter;stroke-width:0.5;"/>
   </g>
   <g id="patch_9">
    <path d="M 36.823362 6.301828 
L 220.963362 6.301828 
" style="fill:none;stroke:#000000;stroke-linecap:square;stroke-linejoin:miter;stroke-width:0.5;"/>
   </g>
   <g id="text_16">
    <g id="patch_10">
     <path d="M 48.731171 47.129757 
L 86.295552 47.129757 
L 86.295552 32.000638 
L 48.731171 32.000638 
z
" style="fill:#ffffff;stroke:#ffffff;stroke-linejoin:miter;"/>
    </g>
    <!-- $\sigma=1.19$ -->
    <g transform="translate(52.731171 41.404294)scale(0.08 -0.08)">
     <defs>
      <path d="M 3763 2643 
L 3763 3200 
L 2310 3200 
C 1805 3200 1459 3142 1165 3014 
C 544 2732 192 2233 192 1638 
C 192 1222 352 800 646 467 
C 979 83 1344 -84 1850 -84 
C 2285 -84 2656 51 2950 313 
C 3238 576 3411 940 3411 1286 
C 3411 1772 3040 2252 2362 2643 
L 3763 2643 
z
M 2061 2643 
C 2611 2073 2733 1830 2733 1305 
C 2733 640 2413 192 1939 192 
C 1350 192 864 838 864 1625 
C 864 2240 1261 2643 1862 2643 
L 2061 2643 
z
" id="StandardSymL-73" transform="scale(0.015625)"/>
      <path d="M 4397 2111 
C 4493 2111 4614 2111 4614 2239 
C 4614 2368 4493 2368 4403 2368 
L 570 2368 
C 480 2368 358 2368 358 2239 
C 358 2111 480 2111 576 2111 
L 4397 2111 
z
M 4403 832 
C 4493 832 4614 832 4614 960 
C 4614 1088 4493 1088 4397 1088 
L 576 1088 
C 480 1088 358 1088 358 960 
C 358 832 480 832 570 832 
L 4403 832 
z
" id="CMR10-3d" transform="scale(0.015625)"/>
      <path d="M 1229 339 
C 1229 524 1075 678 890 678 
C 704 678 550 524 550 339 
C 550 153 704 0 890 0 
C 1075 0 1229 153 1229 339 
z
" id="CMMI10-3a" transform="scale(0.015625)"/>
     </defs>
     <use transform="scale(0.996264)" xlink:href="#StandardSymL-73"/>
     <use transform="translate(92.972125 0)scale(0.996264)" xlink:href="#CMR10-3d"/>
     <use transform="translate(192.519978 0)scale(0.996264)" xlink:href="#NimbusRomNo9L-Regu-31"/>
     <use transform="translate(242.333179 0)scale(0.996264)" xlink:href="#CMMI10-3a"/>
     <use transform="translate(269.928685 0)scale(0.996264)" xlink:href="#NimbusRomNo9L-Regu-31"/>
     <use transform="translate(319.741886 0)scale(0.996264)" xlink:href="#NimbusRomNo9L-Regu-39"/>
    </g>
   </g>
   <g id="text_17">
    <g id="patch_11">
     <path d="M 110.111171 42.764828 
L 147.675552 42.764828 
L 147.675552 27.635709 
L 110.111171 27.635709 
z
" style="fill:#ffffff;stroke:#ffffff;stroke-linejoin:miter;"/>
    </g>
    <!-- $\sigma=0.60$ -->
    <g transform="translate(114.111171 37.039365)scale(0.08 -0.08)">
     <use transform="scale(0.996264)" xlink:href="#StandardSymL-73"/>
     <use transform="translate(92.972125 0)scale(0.996264)" xlink:href="#CMR10-3d"/>
     <use transform="translate(192.519978 0)scale(0.996264)" xlink:href="#NimbusRomNo9L-Regu-30"/>
     <use transform="translate(242.333179 0)scale(0.996264)" xlink:href="#CMMI10-3a"/>
     <use transform="translate(269.928685 0)scale(0.996264)" xlink:href="#NimbusRomNo9L-Regu-36"/>
     <use transform="translate(319.741886 0)scale(0.996264)" xlink:href="#NimbusRomNo9L-Regu-30"/>
    </g>
   </g>
   <g id="text_18">
    <g id="patch_12">
     <path d="M 171.491171 30.116751 
L 209.055552 30.116751 
L 209.055552 14.987632 
L 171.491171 14.987632 
z
" style="fill:#ffffff;stroke:#ffffff;stroke-linejoin:miter;"/>
    </g>
    <!-- $\sigma=2.06$ -->
    <g transform="translate(175.491171 24.391288)scale(0.08 -0.08)">
     <use transform="scale(0.996264)" xlink:href="#StandardSymL-73"/>
     <use transform="translate(92.972125 0)scale(0.996264)" xlink:href="#CMR10-3d"/>
     <use transform="translate(192.519978 0)scale(0.996264)" xlink:href="#NimbusRomNo9L-Regu-32"/>
     <use transform="translate(242.333179 0)scale(0.996264)" xlink:href="#CMMI10-3a"/>
     <use transform="translate(269.928685 0)scale(0.996264)" xlink:href="#NimbusRomNo9L-Regu-30"/>
     <use transform="translate(319.741886 0)scale(0.996264)" xlink:href="#NimbusRomNo9L-Regu-36"/>
    </g>
   </g>
  </g>
 </g>
 <defs>
  <clipPath id="p37cbf5ead8">
   <rect height="138.6" width="184.14" x="36.823362" y="6.301828"/>
  </clipPath>
 </defs>
</svg>
